<?xml version="1.0" encoding="utf-8"?>
<!-- Generator: Adobe Illustrator 19.2.1, SVG Export Plug-In . SVG Version: 6.00 Build 0)  -->
<svg version="1.1" id="Layer_1" xmlns="http://www.w3.org/2000/svg" xmlns:xlink="http://www.w3.org/1999/xlink" x="0px" y="0px"
	 viewBox="0 0 500 500" style="enable-background:new 0 0 500 500;" xml:space="preserve">
<style type="text/css">
	.st0{display:none;enable-background:new    ;}
	.st1{font-family:'ArialMT';}
	.st2{font-size:300px;}
	.st3{letter-spacing:-3;}
	.st4{fill:none;stroke:#000;stroke-width:30;stroke-miterlimit:10;}
	.st5{fill:#000;stroke:#000;stroke-width:15;stroke-miterlimit:10;}
</style>
<text transform="matrix(1 0 0 1 121.3042 275.416)" class="st0 st1 st2 st3">...</text>
<g>
	<g>
		<path class="st4" d="M476.3,250c0,124.6-101.3,225.7-226.3,225.7C125,475.7,23.7,374.7,23.7,250C23.7,125.3,125,24.3,250,24.3
			C375,24.3,476.3,125.3,476.3,250z"/>
	</g>
	<g>
		<path class="st5" d="M194.1,239l62.9-55.7c1-1,2-1.6,3.2-2c1.1-0.4,2.2-0.5,3.2-0.5c2.4,0,4.5,1,6.2,2.9c1.7,1.9,2.6,4.1,2.6,6.5
			c0,2.4-1,4.6-3.1,6.5L209.7,250l59.3,53.3c2,1.9,3.1,4.1,3.1,6.5c0,2.4-0.9,4.6-2.6,6.5c-1.7,1.9-3.8,2.9-6.2,2.9
			c-1,0-2-0.2-3.2-0.5c-1.1-0.4-2.2-1-3.2-2l-63.4-56.4c-3.7-3.2-5.6-6.7-5.6-10.3C187.9,246.4,190,242.7,194.1,239z"/>
	</g>
</g>
</svg>
