<svg id="Capa_1" data-name="Capa 1" xmlns="http://www.w3.org/2000/svg" viewBox="0 0 1024 1024"><title>Mesa de trabajo 1</title><path d="M257.29,650.39c43.25-55.89,37-124.64,21.6-128.85C233.55,506,193.23,610.74,172.3,668.6c-39.59,109.84-22.63,172.67,18,169.08,44.54-3,104.67-46.48,157.95-161.28,12.32-6.22,23,13.52,16.19,29C344.76,768.32,252.7,890,172.94,855.79c-25-10.89-45.28-30.42-52.36-46.25-27.2-65.21-17.53-108.49,4.82-173.62,19.93-57.61,63.2-117.77,108.55-134.76,21-7.82,39,.54,62.3,8.66,65.88,23.23,26.84,122.27-11.5,143.94C266,664.22,251.86,658.64,257.29,650.39Z"/><path d="M468.42,612.81c3.22-19.43,10.7-41,26.51-41.66,6.27-.48,23.58.6,32.47,4.27,5.13,3.53,8,8.69,5.09,12.06-5.78,2.49-9.22,14.51-10.75,21.28,0-2.13-8.18,36.09-12.82,67.05-22,142.27-11.71,132.28-5.94,131.93,5.27-.23,39-127.28,41.45-134.79,5.59-18.41,9.31-38,11.48-46.49,0,0,24.23-5.42,18.34,24.79-1.28,5.64-4.09,18-8.16,31.82-9.17,32.07-36.63,154.38-58,152.16-19.2,2.05-51.22-17.77-58.67-37.24-5.46-13.57-.39-57.95,6.06-101.07-20.22,36.92-44.83,75.45-55.37,75.91-19.2,2.05-50.72-17.9-58.67-37.24-3.85-9.17-3-25.35,1.69-45.15,17.7-64.52,36.92-73,59.76-75.39,15.56-1.69,44.31,22.13,51.55,29.94C460.82,631.72,465.38,619.95,468.42,612.81ZM445,664.89c-21.38-17.65-35-23.35-42.87-5.44.26-3.26-31.1,88-7.13,85.89C402.91,745,426.16,703.07,445,664.89Z"/><path d="M606.1,616.27c-13.61,107.18-23.11,159.57-7.8,159,20.07-.67,75.57-169.27,74.1-177.42,0,0,28.25-6.41,22.36,23.8C686.08,660,637.95,802.28,605.55,811.3c-19.2,2.05-51.22-17.77-58.67-37.24-6-15.58,2.54-100.21,9.82-159.5,9.31-68.32,15.18-122.48,29-159.43,11.66-30.55,28.9-42.78,63.47-32.1,5.13,3.53,8,8.69,5.09,12.06-3,.74-5.53,3.49-8.69,8-11.23,17.13-17.1,40.94-26.47,93.84-4.37,25.57-9.5,52.39-12.49,79.22Z"/><path d="M716.95,529.93c5.36,6.67,6,9.18,4.92,22.22-2.21,19.18-10.49,202.27,23.43,188.61C760.38,734.93,795,619.16,793.53,570c0,0,35.05-15.53,29.78,17.18-4.1,22.31-26.91,170.87-71.1,181.73-21.09,5.18-57.13-15.79-68.87-28.88s-15.62-165.5-12.2-203.62c-.74-3-5.61-9.8-3.84-11.3C675.1,520,704.42,524.49,716.95,529.93Z"/><path d="M892.19,439.59c8.77,3.17,16.78,7.59,22.91,13,11.36,11.59,9.5,36.54,4.3,52.19,7.26,3.54,13.76,8.34,16,15.24,5.44,17.83,4,40-2,61.2,1.5,1.76,3.25,2.4,4.25,2.15,21.57,1.09,28.43-51.18,29.46-55.7.64-3.88,18.92,5.47,18.92,5.47s-7.29,65.69-34,73.86c-7.41,2.35-16.43.31-26.19-4.75a1,1,0,0,1-1.51.37c-14.55,31.79-39.39,62.92-64,58.31-20.05-3.59-55.75-16.66-64.27-47-7.87-38.54-4.78-88.82,22.3-145.53,6.19-11.64,18.06-30.53,29.5-36,10.94-5.35,27.34.74,43.75,6.83C891.69,439.71,891.69,439.71,892.19,439.59Zm2.77,59c3.06-11.4,6.13-27.07,2.53-35.24s-8.49-8.56-12.39-7.07c-13.6,11.86-43.07,74-42.94,130.9-.31,16.05,1.07,45.54,20.26,45.61,14.92.06,30.19-22.33,41.09-47.37l-11.85-15.73a152.5,152.5,0,0,1-12.08-21c-8.21-16.09-11.56-25.38-12.54-29.4-4.76-2-1.29-22.58,27.42-20.58Z"/><path d="M140.4,311.82c2.09,16.75,9.84,34.63,13.91,42.77,7.76-3,15.53-6,23.91-8.07,8.39,2,16.52,10.15,15.9,17.34C105.6,404.41,81,549,130.5,550.47c43.5,2.2,136.34-95.67,201-200.89,12.65-4.63,20.78,15.72,12.39,30C317.67,438.28,161.56,620.42,88.13,578.22c-9.32-5.45-23.21-11.42-30.22-18.68C48,549.08,42.24,520.15,40.54,510.69c-7.13-40.82,25.62-108.48,90.23-145-12.7-12.15-24.47-29-26.15-50.65-1.19-13.58-1.69-29.8,13-55,8.77-15.34,18.56-27.79,28.33-40.35,25.13-25.82,42.64-39.35,62.82-41.87,33.5-4.18,36.27-.74,57.93,9.78,61.22,30,11.17,137.88-28.46,154.52-19.35,8-32.43,1-26.23-6.39,48.27-49.26,35.24-122.27,18.48-120.18-22.34,2.79-38.34,14.3-53,29.31C158.41,264.2,137.9,291.79,140.4,311.82ZM266.66,187.56"/><path d="M416.79,300c4.88,39.09,9.55,84.22,16,128.43,5.44,40.27,57.82,5.22,48,41.35-.94.38-2.53.48-3.46.86-18.25,4.68-58-7.53-68.38-25.1a38.18,38.18,0,0,1-3.5-7.29c-6.58,37.52-15.6,71.67-30,73.71-18.25,4.68-51.5-10.17-61.89-27.74-5-8.32-6.78-26.12-6.87-45.14,2-62.33.54-63,13.11-98.6,4.19-11.86,38.4-55.83,60.73-58.62,5.44-.68,3.8,33.55,4.65,40.37.54,4.35-13.8,3.79-20.71,12.67-4.89,6.28-22.34,48.16-19.55,70.49,2.09,16.75-1.15,86.19,21.69,80.74,9-2,24.37-75.15,18.1-125.4l-9.06-72.59L363.07,187.62c-1.39-11.17-3.49-27.92,2.1-28.62h0a37.9,37.9,0,0,1,42.46,34.37Z"/><path d="M468.82,344.7c4.65-1.64,18-4.37,25.43-3.41,4.6,1.62,7.82,4.94,6.32,8.08-3.86,3.06-4,12.86-3.78,18.29-.82-2.32,2.74,92.93,17.94,87.77,15.91-5.55,15.78-101.31,15.23-136.65a1.48,1.48,0,0,1-.23-1.26c-1.74-15.71-.32-34.08,11.5-37.83,4.65-1.64,18-4.37,25.43-3.41,4.6,1.63,7.82,4.94,6.31,8.08-3.86,3.06-4,12.86-3.78,18.29-.43-1.62,1.2,29,4,53.33,12.42,112.11,18.19,102.44,22.48,101,3.94-1.25,3.5-104.25,3.79-110.42.47-15.07-.72-30.62-.82-37.51,0,0,17.22-9.05,18.93,15,.19,4.52.6,14.48.33,25.74-.37,26.13,3.85,124.25-12.72,126.93-14.1,5.48-42.38-3-52-16.17-3.65-4.93-6.89-17.49-9.88-33-3.72,24.27-9.43,44.1-19.08,47.58-14.1,5.48-42-3.16-52-16.17-6.91-9.15-13.53-55.48-14.94-76.46C455.59,366.83,457,348.45,468.82,344.7Z"/></svg>